:SAMPLES-PER-SECOND 30
:FULLY-SPECIFIED
:DEGREES
228
root  -11.0067 34.4181 -6.99373 -153.474 3.45424 -179.94
RightUpLeg  -36.8599 -13.7012 3.65671
RightLeg  12.4942 -5.88137 -0.908403
RightFoot  7.96354 0.0862033 -0.672799
RightToes  -26.1742 -0.12311 -0.229071
Spine  2.98754 0.398407 0.61436
Spine1  5.92275 1.04628 1.44817
HEad  -22.8743 0.170849 -0.499031
LeftShoulder1  -1.94126e-019 -3.10601e-018 -2.51263e-017
LeftArm  -11.3367 10.5451 -79.9346
LeftForeArm  26.796 -29.1281 -4.80609
LeftHand  -0.452954 -0.921659 8.46465
RightShoulder  -4.96962e-017 0 -2.36833e-017
RightArm  -29.7287 -13.106 72.5302
RightForeArm  45.0328 19.8034 1.96864
RightHand  -0.289597 -3.38125 -16.2084
LeftUpLeg  -37.4274 0.544713 3.78518
LeftLeg  12.1171 14.2812 2.09338
LeftFoot  11.3553 -0.284152 3.01909
LeftToes  -25.6814 2.14545e-006 -7.7278e-009
229
root  -11.082 34.3636 -6.52906 -150.718 3.80214 -179.962
RightUpLeg  -40.7917 -13.2334 4.29506
RightLeg  13.0091 -5.76355 -0.943384
RightFoot  8.58228 0.096482 -0.720349
RightToes  -25.8731 -0.122885 -0.228859
Spine  3.50001 0.433861 0.631067
Spine1  6.9321 1.18253 1.36983
HEad  -22.0579 -0.185572 -0.530741
LeftShoulder1  -1.94126e-019 -3.10601e-018 -2.51263e-017
LeftArm  -12.1766 8.9123 -79.6504
LeftForeArm  26.6588 -28.1245 -4.58305
LeftHand  -0.460521 -0.852876 8.69316
RightShoulder  -4.96962e-017 0 -2.36833e-017
RightArm  -29.177 -10.8807 72.0577
RightForeArm  44.2888 20.628 2.15445
RightHand  -0.246484 -3.74729 -16.7239
LeftUpLeg  -41.0857 0.989516 3.56687
LeftLeg  12.465 14.1921 2.16768
LeftFoot  12.0326 -0.317617 3.17453
LeftToes  -25.4891 2.14545e-006 -7.7278e-009
230
root  -11.1217 34.2991 -6.07686 -148.267 3.99405 -179.741
RightUpLeg  -44.2979 -12.271 4.81203
RightLeg  13.6208 -6.1842 -1.07986
RightFoot  9.22366 0.114863 -0.855579
RightToes  -25.6747 -0.122637 -0.228622
Spine  4.12496 0.531113 0.758907
Spine1  8.1676 1.44966 1.47888
HEad  -21.7109 -0.648738 -0.554168
LeftShoulder1  -1.94126e-019 -3.10601e-018 -2.51263e-017
LeftArm  -11.9115 7.28277 -79.2101
LeftForeArm  25.3821 -27.5509 -4.52001
LeftHand  -0.446631 -0.389061 9.07063
RightShoulder  -4.96962e-017 0 -2.36833e-017
RightArm  -29.0556 -8.86934 71.5653
RightForeArm  43.7547 21.5166 2.34491
RightHand  -0.228539 -3.87157 -16.6973
LeftUpLeg  -44.6087 1.25891 3.7504
LeftLeg  13.2046 14.2852 2.36843
LeftFoot  12.5266 -0.34722 3.32442
LeftToes  -25.3377 2.14545e-006 -7.7278e-009
231
root  -11.1733 34.2226 -5.67428 -145.943 4.18002 -179.567
RightUpLeg  -47.7454 -11.6609 5.36847
RightLeg  14.4538 -6.25032 -1.18525
RightFoot  9.61211 0.12495 -0.916887
RightToes  -25.5141 -0.122368 -0.228363
Spine  4.78375 0.722468 0.857926
Spine1  9.46261 1.90861 1.52268
HEad  -21.574 -1.41791 -0.349847
LeftShoulder1  -1.94126e-019 -3.10601e-018 -2.51263e-017
LeftArm  -11.9581 5.89489 -78.9247
LeftForeArm  24.6143 -27.0159 -4.43712
LeftHand  -0.381036 0.00492167 8.27889
RightShoulder  -4.96962e-017 0 -2.36833e-017
RightArm  -28.7796 -7.16718 71.0715
RightForeArm  42.711 22.0237 2.48826
RightHand  -0.168809 -4.32294 -17.1818
LeftUpLeg  -47.9986 1.32091 3.96675
LeftLeg  14.1285 14.5843 2.65619
LeftFoot  12.8113 -0.371563 3.47027
LeftToes  -25.0089 2.14545e-006 -7.7278e-009
232
root  -11.2225 34.1378 -5.32934 -143.957 4.05664 -179.541
RightUpLeg  -50.7702 -11.3076 5.75552
RightLeg  15.3694 -6.49253 -1.33876
RightFoot  9.68124 0.131221 -0.977237
RightToes  -25.1108 -0.122082 -0.228085
Spine  5.55763 0.809953 1.01426
Spine1  10.9845 2.18691 1.60264
HEad  -21.1899 -1.7971 -0.316035
LeftShoulder1  -1.94126e-019 -3.10601e-018 -2.51263e-017
LeftArm  -12.1377 4.31995 -78.7663
LeftForeArm  24.3189 -26.181 -4.26427
LeftHand  -0.438771 -0.350518 8.96882
RightShoulder  -4.96962e-017 0 -2.36833e-017
RightArm  -28.2668 -5.35587 70.585
RightForeArm  42.509 21.8489 2.46433
RightHand  -0.104595 -4.77812 -17.6742
LeftUpLeg  -51.1552 1.29364 4.04641
LeftLeg  15.2956 14.5414 2.95184
LeftFoot  12.9227 -0.377058 3.48999
LeftToes  -24.5302 2.14545e-006 -7.7278e-009
